<svg width="164" height="163" viewBox="0 0 164 163" fill="none" xmlns="http://www.w3.org/2000/svg">
<path fill-rule="evenodd" clip-rule="evenodd" d="M77.9066 0.100771C55.0713 1.22557 33.8356 11.838 19.0195 29.529C4.16613 47.2647 -2.46041 70.683 0.824257 93.831C3.86791 115.281 15.3748 134.711 32.7816 147.792C40.4914 153.586 48.76 157.81 57.908 160.628C60.1619 161.323 63.7839 162.241 65.8277 162.636C66.6738 162.799 67.4558 162.952 67.5655 162.976C67.755 163.016 67.7649 161.574 67.7649 133.931V104.843H57.908H48.0512V93.4887V82.1345H57.908H67.7649L67.7683 73.4335C67.7729 61.8198 67.8866 59.4679 68.6196 55.8263C69.2084 52.9014 70.0608 50.3774 71.3538 47.7298C72.7999 44.769 74.2633 42.6724 76.4812 40.3842C81.6538 35.0475 88.3993 32.0003 96.7087 31.2462C100.938 30.8625 109.909 31.3621 117.676 32.4139L118.758 32.5605L118.787 43.1976L118.816 53.8348H113.081C109.754 53.8348 106.823 53.8873 106.101 53.9599C101.979 54.3743 99.1402 56.1171 97.6261 59.1636C97.1524 60.1168 96.874 60.9376 96.5699 62.2777C96.3304 63.3337 96.3225 63.6181 96.2827 72.7488L96.2418 82.1345H107.529C113.736 82.1345 118.814 82.173 118.811 82.2201C118.809 82.2673 117.923 87.3637 116.841 93.5457L114.875 104.786L105.564 104.815L96.2529 104.844V133.95C96.2529 161.615 96.2628 163.052 96.4523 162.999C96.5619 162.968 97.344 162.807 98.1901 162.642C108.647 160.6 119.249 156.124 128.273 149.942C135.884 144.728 142.873 137.944 148.265 130.536C156.571 119.125 161.654 106.245 163.424 92.1193C164.151 86.3166 164.193 78.9774 163.532 73.1197C161.724 57.1086 155.532 42.3771 145.426 30.0425C142.192 26.0952 137.893 21.7933 133.971 18.5799C118.18 5.64102 98.3211 -0.904783 77.9066 0.100771Z" fill="url(#paint0_linear_5_89)"/>
<defs>
<linearGradient id="paint0_linear_5_89" x1="82" y1="0" x2="82" y2="163" gradientUnits="userSpaceOnUse">
<stop stop-color="#19AFFF"/>
<stop offset="1" stop-color="#1778F2"/>
</linearGradient>
</defs>
</svg>
