<svg width="621" height="120" viewBox="0 0 621 120" fill="none" xmlns="http://www.w3.org/2000/svg">
<path fill-rule="evenodd" clip-rule="evenodd" d="M40.5241 0.129746C27.4742 1.39181 20.3399 6.6912 17.3657 17.3327C16.3427 20.9928 16.1749 22.8502 16.0305 32.1205L15.8889 41.2114L7.94443 41.2754L0 41.3392V50.9118V60.4842H8.00508H16.0102V89.6963V118.908H27.7752H39.5402V89.6992V60.4902L48.3337 60.4265L57.1271 60.363L58.0208 51.7569C58.5123 47.0236 58.9217 42.7419 58.9305 42.2417L58.9465 41.3327H49.2288H39.5109L39.5946 33.1508C39.6926 23.5455 39.7653 23.1567 41.8612 21.0497C43.8254 19.075 44.4144 18.9537 52.5788 18.8449L59.4316 18.7535V9.79302C59.4316 2.84005 59.3637 0.809989 59.1284 0.731928C57.5441 0.206595 44.197 -0.225648 40.5241 0.129746ZM306.437 1.17387L295.703 2.16611V60.5373V118.908H306.74H317.777L317.785 113.151C317.794 106.826 317.706 107.033 319.233 109.728C320.893 112.658 324.582 115.994 328.151 117.792C328.853 118.146 330.397 118.76 331.582 119.156L333.738 119.878H341.377C348.837 119.878 349.066 119.864 351.141 119.263C363.257 115.754 370.872 105.211 372.725 89.3814C373.15 85.7533 373.212 75.3693 372.832 71.6008C371.443 57.843 365.417 47.5833 355.983 42.9167C351.77 40.8325 348.005 39.9305 342.642 39.7198C332.907 39.3377 325.002 42.9719 320.478 49.9091L319.233 51.8192V25.9697V0.120534L318.202 0.15108C317.635 0.167807 312.341 0.62817 306.437 1.17387ZM563.933 1.16999L553.078 2.15908V60.5336V118.908H564.842H576.605L576.667 99.9821L576.729 81.0558L588.737 99.9739L600.745 118.892L610.872 118.9L621 118.908L620.998 115.211L620.996 111.514L610.81 95.7094C605.207 87.0168 600.623 79.7877 600.623 79.6451C600.623 79.5026 605.208 72.1659 610.812 63.3414L621 47.297V44.315V41.3327L610.387 41.3416L599.774 41.3508L588.252 59.7731L576.729 78.1952L576.668 39.1579L576.607 0.120534L575.698 0.150837C575.198 0.167564 569.904 0.626231 563.933 1.16999ZM88.541 39.801C86.7959 39.9814 83.7482 40.6464 81.8701 41.2561C70.1563 45.0599 62.834 55.6388 61.143 71.202C60.8121 74.2451 60.8121 85.9959 61.143 89.0391C62.8316 104.58 69.7868 114.69 81.7488 118.992L83.8107 119.733L91.452 119.826C99.9543 119.929 100.529 119.865 103.823 118.446C108.471 116.444 112.076 113.087 114.523 108.484L115.103 107.393L115.168 113.151L115.233 118.908H126.509H137.784V80.1205V41.3327H126.504H115.225L115.217 47.2114C115.208 53.6672 115.297 53.4497 113.769 50.7588C110.507 45.0146 104.489 41.0725 97.335 39.995C95.1978 39.673 90.7322 39.5746 88.541 39.801ZM181.934 39.779C181.467 39.8323 180.048 39.9928 178.78 40.1353C170.028 41.121 162.437 44.3508 157.062 49.3756C152.382 53.7506 148.843 60.7307 147.496 68.241C146.511 73.7344 146.306 82.7036 147.026 88.8478C148.545 101.817 154.482 110.991 164.684 116.133C167.192 117.397 171.715 118.919 174.68 119.496C176.481 119.846 178.225 119.891 187.416 119.823L198.065 119.744L200.901 118.983C203.756 118.217 207.77 116.601 208.818 115.796L209.383 115.362L206.781 107.099L204.178 98.8354L203.062 99.3232C200.879 100.277 197.796 101.226 195.16 101.754C191.438 102.501 185.128 102.499 182.39 101.752C179.217 100.886 177.422 99.8684 175.25 97.7036C173.027 95.489 171.834 93.37 171.021 90.1966C169.728 85.1423 169.728 75.0987 171.021 70.0444C172.556 64.0495 176.647 59.9428 182.482 58.5409C188.074 57.1971 195.763 57.9826 202.097 60.5448L204.188 61.3908L206.68 53.483C208.05 49.1336 209.22 45.3947 209.28 45.1741C209.619 43.9283 201.923 41.1683 195.502 40.2325C192.887 39.8514 183.924 39.5521 181.934 39.779ZM247.187 39.7967C240.33 40.2759 234.788 41.6791 229.881 44.1787C221.049 48.6771 215.532 56.3334 213.467 66.9571C212.276 73.0839 212.274 86.673 213.463 93.1654C216.063 107.361 224.509 116.024 238.939 119.296C241.443 119.864 241.699 119.874 253.952 119.876C267.825 119.878 268.629 119.811 275.438 118.067C278.666 117.24 282.985 115.692 283.478 115.185C283.675 114.982 283.182 112.812 281.623 107.03C280.455 102.696 279.407 99.1785 279.293 99.2119C279.179 99.2456 277.667 99.7542 275.933 100.342C270.477 102.191 265.172 103.19 258.429 103.638C249.83 104.208 243.764 102.955 240.458 99.9249C237.944 97.6211 236.838 94.9511 236.145 89.5145L235.999 88.363H260.878H285.757L285.755 81.1508C285.754 77.184 285.645 72.6842 285.512 71.1508C284.167 55.5581 277.09 45.6854 264.33 41.6005C259.57 40.0767 253.029 39.3884 247.187 39.7967ZM414.366 39.8965C398.181 41.4582 387.131 50.1807 382.912 64.7266C381.483 69.6512 381.25 71.8095 381.246 80.1205C381.243 86.897 381.301 88.0708 381.76 90.5448C384.535 105.468 392.501 114.736 406.076 118.831L409.108 119.746L419.175 119.826C428.812 119.903 429.34 119.884 431.546 119.377C445.583 116.156 454.939 106.35 457.721 91.9462C459.028 85.1777 459.026 75.0539 457.716 68.2728C454.853 53.4468 444.901 43.4495 430.179 40.6102C425.392 39.6868 419.361 39.4146 414.366 39.8965ZM499.655 39.8885C484.36 41.4842 473.645 49.4347 469.064 62.5874C467.244 67.8119 466.644 72.1627 466.644 80.1205C466.644 88.0783 467.244 92.4291 469.064 97.6536C472.882 108.615 480.751 115.837 492.434 119.099C494.728 119.739 494.781 119.743 504.684 119.825C514.201 119.903 514.729 119.884 516.934 119.378C527.486 116.955 535.346 110.987 539.744 102.06C542.986 95.4786 544.103 89.8558 544.103 80.1205C544.103 77.4822 543.988 74.1937 543.848 72.8129C542.007 54.616 531.268 43.0323 513.65 40.2381C510.765 39.7804 502.637 39.5775 499.655 39.8885ZM255.349 56.2561C259.786 57.3942 262.738 60.4357 264.04 65.2114C264.259 66.0114 264.501 68.1113 264.579 69.8781L264.722 73.0902H250.489C238.225 73.0902 236.237 73.0413 236.12 72.7358C235.931 72.2454 236.452 67.6168 236.889 65.898C238.099 61.1394 241.455 57.5137 245.711 56.3685C248.588 55.5942 252.588 55.5477 255.349 56.2561ZM102.974 58.4245C107.069 59.2837 110.199 61.7736 112.043 65.6388C113.774 69.2674 114.252 72.4585 114.247 80.363C114.244 87.8151 113.687 91.4342 112.032 94.7782C109.564 99.7649 105.453 102.188 99.4789 102.177C91.7923 102.163 86.9757 98.3341 85.1515 90.7872C84.1409 86.6054 83.9522 76.1882 84.7975 71.2517C85.9542 64.5004 89.3335 60.1753 94.6055 58.699C97.1225 57.9942 100.41 57.8866 102.974 58.4245ZM338.011 58.4233C343.052 59.4905 346.642 62.8517 348.312 68.0662C349.45 71.6228 349.611 73.4303 349.495 81.3545C349.402 87.7666 349.337 88.6914 348.847 90.5448C346.815 98.2391 341.836 102.181 334.151 102.181C329.696 102.181 326.628 101.051 323.95 98.4236C321.102 95.6294 319.652 91.8992 319.192 86.1811C318.843 81.842 319.071 73.1077 319.601 70.5448C320.979 63.8771 324.713 59.6228 330.24 58.4214C332.237 57.9872 335.956 57.9882 338.011 58.4233ZM423.641 58.4233C429.469 59.657 433.134 63.7438 434.621 70.666C434.995 72.4059 435.064 73.8771 435.064 80.1205C435.064 86.3639 434.995 87.8352 434.621 89.5751C433.246 95.9756 430.311 99.6192 425.009 101.508C423.038 102.21 418.385 102.378 415.943 101.835C410.608 100.649 407.009 96.8735 405.295 90.666C404.789 88.834 404.759 88.25 404.759 80.1205C404.759 71.9911 404.789 71.4071 405.295 69.5751C406.993 63.427 410.661 59.5525 415.85 58.4255C417.866 57.9877 421.579 57.9867 423.641 58.4233ZM509.231 58.4148C514.572 59.546 518.249 63.4325 519.906 69.6963C520.423 71.6488 520.451 72.2015 520.441 80.2417C520.432 88.2216 520.4 88.842 519.897 90.666C519.023 93.8366 517.581 96.4888 515.742 98.3055C512.971 101.044 509.94 102.181 505.411 102.181C499.162 102.181 494.74 99.6119 492.326 94.5782C490.372 90.5033 489.878 86.8759 490.09 78.1811C490.232 72.3843 490.483 70.4124 491.417 67.7453C493.181 62.7111 496.673 59.4582 501.409 58.4381C503.479 57.992 507.183 57.9811 509.231 58.4148Z" fill="#1877F2"/>
</svg>
