<svg width="24" height="24" viewBox="0 0 24 24" fill="none" xmlns="http://www.w3.org/2000/svg">
<path fill-rule="evenodd" clip-rule="evenodd" d="M23.25 12C23.25 16.845 20.19 20.9746 15.8955 22.5541L16.0005 22.5C17.751 21 18.7215 18.0495 19.0005 16.749C19.3215 15.249 19.455 14.799 18.2505 13.809C17.7855 13.4295 17.235 13.5151 16.6905 13.0951C16.3215 12.8101 16.1565 12.21 15.7815 12C14.8905 11.4945 14.121 12.165 12.8505 12.3345C12.2689 12.4 11.6801 12.337 11.1255 12.1501C11.115 12.1501 11.115 12.1501 11.106 12.1441L10.9815 12.0991C10.7355 11.9761 10.866 11.79 10.9905 11.559H10.9815C11.1105 11.304 11.1105 10.995 10.9065 10.7655C10.6215 10.4445 10.0965 10.4446 9.70051 10.4296C9.54151 10.4251 9.3855 10.4295 9.231 10.4355L9.2265 10.4296C9.1665 10.4296 9.1005 10.4355 9.0405 10.4355H8.985C8.5005 10.446 7.986 10.3846 7.6455 9.96455C7.251 9.43505 7.2105 8.86506 7.791 8.32956C8.211 7.93956 9.0855 7.12956 10.5015 7.99956C11.406 8.55456 12.2505 9.00006 13.0005 8.74956C13.4955 8.58456 13.7205 8.29506 13.1415 7.44456C12.9109 7.12774 12.7975 6.74071 12.8205 6.34955C12.921 5.18555 13.851 5.08953 14.5665 4.54953C15.2655 4.01553 15.5865 3.13503 15.3855 2.36403C15.2265 1.74453 14.6205 1.05456 13.4655 0.84906C16.1731 1.20121 18.6599 2.52734 20.4609 4.57956C22.2619 6.63178 23.2539 9.26962 23.2515 12" fill="#65676B"/>
<path fill-rule="evenodd" clip-rule="evenodd" d="M15.1605 22.7941C13.4837 23.2856 11.7154 23.3795 9.99585 23.0686C8.27634 22.7577 6.65292 22.0505 5.25436 21.0029C3.8558 19.9553 2.72056 18.5963 1.93869 17.0336C1.15683 15.4709 0.749842 13.7474 0.750008 12C0.747716 10.1275 1.21415 8.28404 2.10679 6.63789C2.99942 4.99174 4.28987 3.59522 5.86051 2.57556C4.73835 3.50221 3.88265 4.71043 3.38101 6.07654C2.25151 9.40204 3.05551 12.1891 6.81601 12.1891C8.06551 12.1891 8.91601 13.0306 8.81551 15.7516C8.79601 16.3561 9.59551 18.4215 12.4905 18.5865C13.5405 18.6465 14.2665 20.1661 14.4855 21.1966C14.5755 21.6316 14.676 22.1716 14.871 22.6516C14.8961 22.7046 14.9382 22.7477 14.9908 22.7738C15.0433 22.7999 15.1031 22.8076 15.1605 22.7955" fill="#65676B"/>
<path d="M24 12C24 15.1826 22.7357 18.2349 20.4853 20.4853C18.2348 22.7357 15.1826 24 12 24C8.8174 24 5.76516 22.7357 3.51472 20.4853C1.26428 18.2349 0 15.1826 0 12C0 8.8174 1.26428 5.76515 3.51472 3.51471C5.76516 1.26427 8.8174 0 12 0C15.1826 0 18.2348 1.26427 20.4853 3.51471C22.7357 5.76515 24 8.8174 24 12ZM22.5 12C22.5 9.21523 21.3937 6.54453 19.4246 4.57539C17.4555 2.60626 14.7848 1.5 12 1.5C9.21523 1.5 6.54451 2.60626 4.57538 4.57539C2.60625 6.54453 1.5 9.21523 1.5 12C1.5 14.7848 2.60625 17.4555 4.57538 19.4246C6.54451 21.3937 9.21523 22.5 12 22.5C14.7848 22.5 17.4555 21.3937 19.4246 19.4246C21.3937 17.4555 22.5 14.7848 22.5 12V12Z" fill="#65676B"/>
</svg>
